<svg id="Layer_1" data-name="Layer 1" xmlns="http://www.w3.org/2000/svg" width="223" height="66" viewBox="0 0 223 66">
  <defs>
    <style>
      .cls-1 {
        fill: #fff;
      }
    </style>
  </defs>
  <g id="PwC_fl_ko.eps">
    <g>
      <g>
        <path class="cls-1" d="M126.9,43.6c-2.8.4-4.2,2.5-4.2,6.1s1.9,6.2,4.8,6.2c1.3,0,2.6-.5,5.2-1.8v3a16.6,16.6,0,0,1-7.5,1.9,8.5,8.5,0,0,1-6.2-2.3,8.7,8.7,0,0,1-2.4-6.1c0-5.3,3.9-8.8,9.6-8.8,3.7,0,6.3,1.7,6.3,4.2a2.7,2.7,0,0,1-3,2.8,5.2,5.2,0,0,1-2.6-.8Z"/>
        <path class="cls-1" d="M113.1,50.6c2.5-3.2,3.4-4.5,3.4-6a2.8,2.8,0,0,0-2.9-2.8,3.5,3.5,0,0,0-2.4,1v6.4l-4.1,5.5V42.2h-3.9L96.7,53V42.2H94.5l-5.9,1.4v1.5l3.2.4V58.7h4.1l6.3-10.3V58.7h4.5Z"/>
        <path class="cls-1" d="M76.2,63.9l2.6.6V66H68.3V64.5l2.4-.6V45.4H68V43.8l6.5-2h1.7V44c3-1.8,4-2.1,5.6-2.1,3.6,0,6.2,3.3,6.2,7.9s-3.5,8.9-9.1,8.9l-2.7-.2Zm0-7.2h.9c3.3,0,5.1-2.1,5.1-6.1s-1.5-5.2-4.2-5.2a7.3,7.3,0,0,0-1.8.2Z"/>
      </g>
      <rect class="cls-1" x="107.1" y="28.3" width="16.2" height="4.05"/>
      <path class="cls-1" d="M124.1,21.1h8.5v6.4h-8.5Zm9.3,0h5.3v6.4h-5.3Zm6.1,0h2.3v6.4h-2.3Zm3.2,0H150v6.4h-7.3Zm8.1,0h3.3v6.4h-3.3ZM124.1,17h8.5v3.2h-8.5Zm0-8.1h14.6V20.2h-5.3v-4h-9.3Zm15.4,0h2.3V20.2h-2.3Zm3.2,0H150V20.2h-7.3ZM124.1,4h14.6V8.1H124.1Zm15.4,0h2.3V8.1h-2.3ZM124.1.8h14.6V3.2H124.1Zm-.8-.8V28.3H155V20.2h-4.2V8.1h-8.1V3.2h-3.2V0Z"/>
    </g>
  </g>
</svg>
